<svg width="1366" height="472" viewBox="0 0 1366 472" fill="none" xmlns="http://www.w3.org/2000/svg">
<rect width="1366" height="472" transform="matrix(1 0 0 -1 0 472)" fill="#20655A"/>
<mask id="mask0_0_1" style="mask-type:alpha" maskUnits="userSpaceOnUse" x="0" y="0" width="1363" height="472">
<path d="M0 472H1363V0H0V472Z" fill="white"/>
</mask>
<g mask="url(#mask0_0_1)">
<mask id="mask1_0_1" style="mask-type:alpha" maskUnits="userSpaceOnUse" x="0" y="0" width="1363" height="472">
<path d="M0 472H1363V0H0V472Z" fill="#F0FFF6"/>
</mask>
<g mask="url(#mask1_0_1)">
<g opacity="0.1">
<path d="M2073.78 507.442C2025.62 217.583 1542.26 33.5635 1179.13 37.2649C760.653 41.5665 602.932 294.162 284.47 217.333C-6.14565 147.306 -23.2686 -98.9865 -236.92 -137.801C-433.271 -173.465 -743.972 -24.5584 -1256 712.519" stroke="white" stroke-miterlimit="10"/>
<path d="M-1231.59 745.181C-725.782 18.7566 -414.904 -135.902 -215.768 -106.841C-68.1796 -85.1326 -11.3007 34.4625 104.175 127.948C161.811 176.07 232.701 211.356 310.48 230.636C565.25 293.96 717.105 153.808 989.353 93.6848C1058.75 78.1829 1130.06 69.6209 1201.82 68.1752C1566.44 59.8221 2044.4 219.332 2100.03 498.638" stroke="white" stroke-miterlimit="10"/>
<path d="M-1207.12 777.743C-707.531 62.0231 -396.652 -98.3373 -195.147 -75.8289C-47.0249 -59.2726 13.2312 54.6203 128.944 143.354C187.961 189.745 258.745 224.149 335.9 243.942C586.997 308.316 738.793 182.068 1011.99 124.747C1081.42 110.056 1152.46 101.474 1223.98 99.1371C1590.14 87.0826 2062.65 221.083 2125.75 489.834" stroke="white" stroke-miterlimit="10"/>
<path d="M-1182.71 810.206C-689.462 105.34 -378.406 -60.6722 -174.294 -44.8662C-25.5199 -33.3619 37.8763 74.7289 154.004 158.761C214.274 203.394 284.898 236.936 361.375 257.248C609.035 322.672 760.238 210.28 1034.68 155.809C1104.17 141.798 1175.03 133.143 1246.37 129.95C1614.01 113.644 2081.07 222.685 2151.64 480.882" stroke="white" stroke-miterlimit="10"/>
<path d="M-1158.3 842.918C-671.275 148.606 -360.278 -22.959 -153.381 -13.8556C-4.1334 -7.35314 62.6993 94.9355 179.183 174.115C240.749 217.013 311.342 249.73 387.264 270.552C631.488 337.027 782.276 238.54 1058.08 186.87C1127.5 173.677 1198.01 165.015 1269.01 160.96C1638.19 140.403 2099.79 224.534 2177.88 472.178" stroke="white" stroke-miterlimit="10"/>
<path d="M-1134.13 875.53C-653.145 191.872 -341.97 9.9032 -132.466 17.1059C17.0779 22.1078 87.5247 114.793 204.245 189.521C267.078 230.608 337.637 262.496 412.979 283.857C653.766 351.382 804.021 266.8 1080.77 217.982C1150.17 205.474 1220.44 196.753 1291.16 191.872C1661.88 166.862 2118.04 226.235 2203.6 463.374" stroke="white" stroke-miterlimit="10"/>
<path d="M-1109.42 908.143C-634.953 235.189 -324.015 52.8202 -111.608 47.8184C38.4099 44.9173 112.471 134.951 229.369 204.978C293.398 244.238 363.931 275.317 438.695 297.212C676.046 365.788 825.945 295.062 1103.7 249.094C1173.08 237.333 1243.13 228.585 1313.56 222.884C1685.82 193.623 2136.53 227.886 2229.55 454.622" stroke="white" stroke-miterlimit="10"/>
<path d="M-1085.01 940.756C-616.942 278.456 -305.945 90.4348 -90.6937 79.0805C59.6799 70.9775 137.533 154.659 254.49 220.334C319.663 257.73 390.201 287.984 464.409 310.368C698.264 380.044 847.808 323.273 1126.63 280.006C1191.51 270.003 1260.77 260.399 1335.96 253.646C1709.82 219.984 2155.02 229.687 2255.5 445.769" stroke="white" stroke-miterlimit="10"/>
<path d="M-1060.6 973.367C-598.634 321.772 -287.874 128.599 -69.8385 109.942C80.9498 97.0869 162.654 174.416 279.73 235.639C346.049 271.152 416.632 300.643 490.3 323.622C720.719 394.349 869.789 351.383 1149.74 311.068C1214.91 301.664 1284 292.16 1358.59 284.558C1733.52 246.543 2173.5 231.438 2281.45 436.915" stroke="white" stroke-miterlimit="10"/>
<path d="M-1036.13 1005.93C-580.446 365.037 -269.805 166.662 -48.9249 141.052C102.219 123.496 188.07 194.273 304.672 251.094C372.051 284.702 442.669 313.448 515.776 337.026C742.817 408.803 891.473 379.743 1172.49 342.028C1237.66 333.225 1306.81 323.721 1380.81 315.318C1757.69 272.702 2191.98 232.887 2307.4 427.861" stroke="white" stroke-miterlimit="10"/>
<path d="M-1011.72 1038.54C-562.316 408.305 -251.734 204.828 -28.188 172.016C123.311 149.807 213.073 213.932 329.675 266.551C398.1 298.181 468.804 326.163 541.371 350.333C764.917 423.16 913.158 407.955 1195.3 373.342C1260.77 365.239 1329.74 355.685 1403.09 346.532C1781.51 299.314 2210.29 234.889 2333.29 419.309" stroke="white" stroke-miterlimit="10"/>
<path d="M-987.309 1071.15C-544.127 451.621 -233.545 242.993 -7.15509 202.977C144.759 176.167 238.491 233.539 354.855 281.957C421.747 309.768 490.239 337.828 567.203 363.638C787.312 437.466 935.138 436.215 1218.35 404.403C1284 396.951 1352.84 387.347 1425.72 377.443C1805.68 325.624 2229.01 236.59 2359.42 410.506" stroke="white" stroke-miterlimit="10"/>
<path d="M-962.895 1103.77C-525.934 495.088 -215.767 281.257 13.7039 233.989C166.033 202.527 263.912 253.046 379.98 297.363C448.472 323.523 517.141 350.783 592.921 376.943C809.594 451.971 956.946 464.426 1241.28 435.465C1307.11 428.712 1375.89 419.059 1448 408.355C1829.44 351.834 2247.38 238.291 2385.26 401.702" stroke="white" stroke-miterlimit="10"/>
<path d="M-938.604 1136.38C-507.805 538.204 -197.341 319.571 34.5587 265.001C187.302 229.037 289.329 272.504 405.101 312.819C475.252 337.228 544.039 363.738 618.397 390.298C831.693 466.227 978.511 492.737 1264.21 466.627C1330.27 460.475 1398.88 450.771 1470.39 439.367C1853.38 378.044 2265.87 239.991 2411.21 392.899" stroke="white" stroke-miterlimit="10"/>
<path d="M-914.012 1168.94C-489.612 581.471 -179.326 357.987 55.4771 295.963C208.695 255.448 314.809 291.812 430.167 328.175C501.976 350.784 571.001 376.644 644.351 403.554C854.092 480.533 1000.61 520.898 1287.14 497.639C1356.22 491.422 1424.89 482.223 1492.85 470.079C1877.26 404.204 2284.54 241.793 2437.16 384.047" stroke="white" stroke-miterlimit="10"/>
<path d="M-889.605 1201.55C-471.427 624.785 -160.845 396.249 76.1506 326.923C229.842 281.906 340.104 311.067 455.343 343.579C528.812 364.337 597.955 389.547 670.061 416.857C876.425 494.886 1022.47 549.157 1309.95 528.699C1378.97 523.239 1447.51 514.033 1515.13 501.139C1901.13 430.062 2302.84 243.492 2463.17 375.041" stroke="white" stroke-miterlimit="10"/>
<path d="M-865.191 1234.17C-453.294 668.052 -142.356 434.864 97.2467 357.885C251.294 308.467 365.762 330.225 480.409 358.936C555.536 377.793 624.798 402.502 695.719 430.163C898.587 509.242 1044.28 577.368 1333 559.761C1401.96 554.993 1470.38 545.729 1537.65 532.051C1924.95 456.272 2321.33 245.243 2489.12 366.439" stroke="white" stroke-miterlimit="10"/>
<path d="M-840.727 1266.78C-435.109 711.57 -124.349 473.33 118.098 388.899C272.796 334.978 391.235 349.284 505.467 374.343C582.49 391.199 651.693 415.409 721.428 443.469C920.86 523.499 1066.08 605.63 1355.92 590.875C1424.81 586.767 1493.12 577.443 1560.04 563.014C1948.77 482.284 2339.81 246.945 2515.07 357.637" stroke="white" stroke-miterlimit="10"/>
<path d="M-816.316 1299.39C-417.216 754.634 -105.982 511.893 139.012 420.058C294.244 361.736 416.652 368.489 530.587 390.047C609.092 405.053 678.709 428.662 747.142 457.072C943.137 538.253 1087.94 634.189 1378.85 622.135C1447.67 618.689 1515.88 609.303 1582.43 594.124C1972.59 508.392 2358.59 248.994 2541.02 349.032" stroke="white" stroke-miterlimit="10"/>
<path d="M-791.904 1332C-398.788 797.951 -87.5542 550.458 159.869 450.871C315.753 388.097 442.071 387.196 555.71 405.153C635.874 417.858 705.551 441.317 772.857 470.178C965.357 552.409 1109.75 662.2 1401.78 653.097C1470.52 650.338 1538.66 640.889 1604.83 624.936C1996.35 534.052 2376.78 250.395 2566.97 340.029" stroke="white" stroke-miterlimit="10"/>
<path d="M-767.434 1364.57C-380.598 841.218 -69.1267 589.273 180.548 481.833C337.024 414.707 467.194 406.054 580.537 420.559C662.359 431.013 732.214 454.222 798.276 483.333C987.399 566.665 1131.37 690.361 1424.48 684.059C1493.15 681.936 1561.23 672.422 1627.05 655.748C2019.63 559.312 2395.03 252.146 2592.81 331.176" stroke="white" stroke-miterlimit="10"/>
<path d="M-743.084 1397.18C-125.474 565.114 311.071 406.954 605.894 435.965C927.733 467.627 1050.56 719.772 1447.64 715.171C1913.46 709.719 2378.97 242.242 2618.87 322.373" stroke="white" stroke-miterlimit="10"/>
</g>
</g>
<g opacity="0.7" filter="url(#filter0_f_0_1)">
<ellipse cx="134.704" cy="82.9688" rx="134.704" ry="82.9688" transform="matrix(1 0 0 -1 1191.38 373.052)" fill="#20655A"/>
</g>
<g opacity="0.7" filter="url(#filter1_f_0_1)">
<ellipse cx="182.598" cy="112.469" rx="182.598" ry="112.469" transform="matrix(1 0 0 -1 -268.41 289.469)" fill="#20655A"/>
</g>
</g>
<defs>
<filter id="filter0_f_0_1" x="777.377" y="-206.886" width="1097.41" height="993.938" filterUnits="userSpaceOnUse" color-interpolation-filters="sRGB">
<feFlood flood-opacity="0" result="BackgroundImageFix"/>
<feBlend mode="normal" in="SourceGraphic" in2="BackgroundImageFix" result="shape"/>
<feGaussianBlur stdDeviation="207" result="effect1_foregroundBlur_0_1"/>
</filter>
<filter id="filter1_f_0_1" x="-682.41" y="-349.469" width="1193.2" height="1052.94" filterUnits="userSpaceOnUse" color-interpolation-filters="sRGB">
<feFlood flood-opacity="0" result="BackgroundImageFix"/>
<feBlend mode="normal" in="SourceGraphic" in2="BackgroundImageFix" result="shape"/>
<feGaussianBlur stdDeviation="207" result="effect1_foregroundBlur_0_1"/>
</filter>
</defs>
</svg>
